<svg xmlns="http://www.w3.org/2000/svg" width="49.314" height="55.188" version="1.0" viewBox="0 0 36.986 41.391"><defs><clipPath id="a"><path d="M20 19.313h9V36h-9zm0 0"/></clipPath></defs><g class="apple"><path fill="#d93022" d="M6.272 11.266c3.871-1.58 8.48.027 12.102 3.722 3.648-3.863 8.378-5.574 12.332-3.96 5.734 2.34 7.671 10.777 4.328 18.843-3.309 7.984-10.555 12.61-16.262 10.434a7.01 7.01 0 0 1-.39.175c-5.735 2.34-13.095-2.304-16.439-10.37C-1.4 22.042.537 13.604 6.273 11.265"/><path fill="none" stroke="#24578f" stroke-linecap="round" stroke-linejoin="round" stroke-miterlimit="10" stroke-width="30" d="M2716.142 2591.993c-186.994 76.84-409.652-1.331-584.57-181.257-176.24 188.104-404.746 271.41-595.703 192.86-277.002-113.929-370.593-524.753-209.072-917.509 159.823-388.761 509.848-613.954 785.528-508.014 6.227-3.043 12.454-5.896 18.87-8.56 277-113.927 632.498 112.217 794.019 504.972 161.521 392.756 67.93 803.58-209.072 917.508zm0 0" transform="matrix(-.0207 0 0 -.02054 62.501 64.5)"/><g clip-path="url(#a)" transform="translate(-9.353 -19.418)"><path fill="#24578f" d="M27.898 35.246s.051-.293.122-.816a30.241 30.241 0 0 0 .253-3.614 29.099 29.099 0 0 0-.027-1.628 21.103 21.103 0 0 0-.437-3.536 14.125 14.125 0 0 0-.508-1.773 9.976 9.976 0 0 0-.778-1.652 6.553 6.553 0 0 0-1.09-1.38 5.427 5.427 0 0 0-1.34-.933 5.458 5.458 0 0 0-1.312-.43 2.603 2.603 0 0 0-1.05-.023c-.29.062-.5.164-.641.258a1.642 1.642 0 0 0-.203.164.223.223 0 0 0 .004.316l.027.02.008.008s.086.054.226.125c.141.062.336.144.575.203.117.035.246.05.386.078.067.008.14.02.215.027.07.012.149.024.227.035.316.055.66.153 1.008.317a4.21 4.21 0 0 1 1.035.707c.328.308.636.691.914 1.125.273.433.515.918.722 1.437.207.516.375 1.063.524 1.617.297 1.114.472 2.27.594 3.36.12 1.09.18 2.12.203 3.004.027.883.027 1.62.02 2.136-.009.52-.024.813-.024.813a.177.177 0 0 0 .168.18.174.174 0 0 0 .18-.145"/></g><path fill="#77cb4a" d="M27.776 3.129c-.742-1.13-5.977-1.563-7.914-.703-1.906.843-2.567 2.96-1.82 4.09.738 1.128 3.074 1.5 4.507-.004 1.782-1.867 5.97-2.25 5.227-3.383"/><path fill="none" stroke="#24578f" stroke-linecap="round" stroke-linejoin="round" stroke-miterlimit="10" stroke-width="30" d="M1677.388 2988.172c35.852 54.967 288.7 76.079 382.292 34.236 92.082-41.083 123.971-144.17 87.93-199.136-35.662-54.967-148.5-73.035-217.75.19-86.045 90.914-288.323 109.553-252.472 164.71zm0 0" transform="matrix(-.0207 0 0 -.02054 62.501 64.5)"/><path fill="none" stroke="#fff" stroke-linecap="round" stroke-linejoin="round" stroke-miterlimit="10" stroke-width="30" d="M2263.657 2401.987s253.226 226.524 450.032 96.62c0 0 339.836-165.09 146.615-773.34m-706.655-513.339s307.38-87.871 560.04 246.684M1646.82 2575.256s303.418-9.89 445.126-216.634m-31.7 614.144s65.665-35.947 55.098-119.253" transform="matrix(-.0207 0 0 -.02054 62.501 64.5)"/></g></svg>